<?xml version="1.0" encoding="utf-8"?>
<!-- Generator: Adobe Illustrator 27.8.1, SVG Export Plug-In . SVG Version: 6.00 Build 0)  -->
<svg version="1.1" id="Layer_1" xmlns="http://www.w3.org/2000/svg" xmlns:xlink="http://www.w3.org/1999/xlink" x="0px" y="0px"
	 viewBox="0 0 888.52 686.87" style="enable-background:new 0 0 888.52 686.87;" xml:space="preserve">
<style type="text/css">
	.st0{fill:#FF715B;}
	.st1{fill:#1EA896;}
	.st2{fill:#FFFFFF;}
</style>
<g>
	<g>
		<g>
			<path class="st1" d="M773.12,332.77c-1.63-51.41-15.01-99.89-37.53-142.84c-3.82-7.29-7.91-14.42-12.23-21.37
				C684.79,106.7,626.43,58.55,557.28,33.07c-0.03-0.03-0.03-0.03-0.05-0.03c-32.05-11.81-66.45-18.72-102.27-19.87
				c-2.75-0.08-5.5-0.13-8.25-0.16c-0.83-0.03-1.63-0.03-2.43-0.03c-0.8,0-1.6,0-2.43,0.03c-2.75,0.03-5.5,0.08-8.25,0.19
				c-35.84,1.12-70.24,8.07-102.32,19.84l-0.03,0.03c-69.15,25.48-127.48,73.64-166.05,135.49c-4.33,6.94-8.41,14.08-12.23,21.37
				c-22.52,42.95-35.9,91.42-37.53,142.84c-0.13,3.55-0.19,7.1-0.19,10.68c0,3.58,0.05,7.13,0.19,10.68
				c1.63,51.41,15.01,99.89,37.53,142.84c3.82,7.29,7.91,14.4,12.23,21.37c38.54,61.8,96.82,109.93,165.92,135.44
				c32.13,11.86,66.59,18.8,102.48,19.92c2.72,0.11,5.5,0.16,8.25,0.19c0.8,0.03,1.63,0.03,2.43,0.03c0.8,0,1.63,0,2.43-0.03
				c2.75-0.03,5.5-0.08,8.25-0.19c35.87-1.12,70.32-8.07,102.43-19.92c69.12-25.48,127.43-73.64,165.97-135.44
				c4.33-6.97,8.41-14.08,12.23-21.37c22.52-42.95,35.9-91.42,37.53-142.84c0.13-3.55,0.19-7.1,0.19-10.68
				C773.3,339.87,773.25,336.32,773.12,332.77z M711.2,496.97c-4.17,7.32-8.63,14.45-13.41,21.37
				c-44.28,64.64-112.39,111.56-191.48,127.88c-16.67,3.47-33.81,5.56-51.36,6.14c-2.86,0.08-5.72,0.13-8.6,0.16
				c-0.69,0-1.39,0.03-2.08,0.03s-1.39-0.03-2.08-0.03c-2.88-0.03-5.74-0.08-8.6-0.16c-17.52-0.59-34.69-2.67-51.36-6.14
				c-79.08-16.32-147.22-63.25-191.48-127.88c-4.78-6.92-9.24-14.05-13.41-21.37c-24.25-42.36-38.78-91-40.52-142.84
				c-0.16-3.55-0.21-7.1-0.21-10.68c0-3.58,0.05-7.13,0.21-10.68c1.74-51.84,16.27-100.48,40.52-142.84
				c4.17-7.32,8.63-14.45,13.41-21.37C235.01,103.92,303.12,57,382.23,40.68c16.67-3.47,33.84-5.56,51.36-6.14
				c2.86-0.08,5.72-0.13,8.6-0.16c0.69,0,1.39-0.03,2.08-0.03s1.39,0.03,2.08,0.03c2.88,0.03,5.74,0.08,8.6,0.16
				c17.55,0.59,34.69,2.67,51.36,6.14C585.43,57,653.54,103.92,697.8,168.56c4.78,6.92,9.24,14.05,13.41,21.37
				c24.25,42.36,38.78,91,40.52,142.84c0.16,3.55,0.21,7.1,0.21,10.68c0,3.58-0.05,7.13-0.21,10.68
				C749.99,405.98,735.46,454.61,711.2,496.97z"/>
			<path class="st1" d="M561.53,478.22c-1.34,6.38-2.78,12.63-4.3,18.75c-1.82,7.32-3.77,14.45-5.82,21.37
				c-21.95,73.85-57.05,125.21-96.45,133.14c-2.83,0.59-5.72,0.93-8.6,1.04c-0.69,0-1.39,0.03-2.08,0.03s-1.39-0.03-2.08-0.03
				c-2.88-0.11-5.77-0.45-8.6-1.04c-39.42-7.93-74.49-59.29-96.45-133.14c-2.06-6.92-4.01-14.05-5.82-21.37
				c-1.52-6.12-2.96-12.37-4.3-18.75h-22.2c1.28,6.38,2.64,12.61,4.09,18.75c1.71,7.29,3.55,14.42,5.53,21.37
				c15.92,56.44,39.48,101.17,67.79,127.88c7.85,7.48,16.08,13.51,24.63,18.03c8.63,4.57,17.55,7.59,26.74,8.92
				c2.72,0.4,5.48,0.64,8.25,0.72c0.8,0.03,1.63,0.03,2.43,0.03c0.8,0,1.63,0,2.43-0.03c2.78-0.08,5.53-0.32,8.25-0.72
				c9.16-1.34,18.08-4.35,26.71-8.92c8.55-4.51,16.77-10.58,24.65-18.03c28.31-26.71,51.87-71.45,67.79-127.88
				c1.98-6.94,3.82-14.08,5.53-21.37c1.44-6.14,2.8-12.37,4.09-18.75H561.53z M596.41,332.77c-0.72-51.74-6.68-100.13-16.77-142.84
				c-1.71-7.29-3.55-14.42-5.53-21.37c-15.92-56.44-39.48-101.17-67.79-127.88c-7.88-7.48-16.16-13.54-24.71-18.05
				c-8.6-4.54-17.52-7.56-26.66-8.89c-2.72-0.4-5.48-0.64-8.25-0.72c-0.83-0.03-1.63-0.03-2.43-0.03c-0.8,0-1.6,0-2.43,0.03
				c-2.78,0.08-5.53,0.32-8.25,0.72c-9.13,1.34-18.06,4.35-26.66,8.89c-8.57,4.51-16.83,10.58-24.71,18.05
				c-28.31,26.71-51.87,71.45-67.79,127.88c-1.98,6.94-3.82,14.08-5.53,21.37c-1.44,6.12-2.8,12.37-4.09,18.72h22.2
				c1.34-6.36,2.78-12.61,4.3-18.72c1.82-7.32,3.77-14.45,5.82-21.37c21.95-73.85,57.02-125.21,96.45-133.14
				c2.83-0.59,5.72-0.93,8.6-1.04c0.69,0,1.39-0.03,2.08-0.03s1.39,0.03,2.08,0.03c2.88,0.11,5.77,0.45,8.6,1.04
				c39.4,7.93,74.49,59.29,96.45,133.14c2.06,6.92,4.01,14.05,5.82,21.37c10.6,42.6,17.04,91.34,17.79,142.84
				c0.08,3.55,0.11,7.1,0.11,10.68c0,3.58-0.03,7.13-0.11,10.68c-0.19,12.87-0.72,25.61-1.6,38.09h21.47
				c0.83-12.47,1.34-25.16,1.52-38.09c0.05-3.55,0.08-7.1,0.08-10.68C596.49,339.87,596.46,336.32,596.41,332.77z"/>
			<path class="st1" d="M888.31,332.77c-1.98-50.4-17.87-98.9-46.31-142.84c-4.7-7.24-9.72-14.37-15.09-21.37
				c-19.07-24.84-42.33-47.97-69.55-68.88C676.16,37.37,569.11,2.16,454.96,0.11C451.41,0.03,447.85,0,444.28,0
				c-3.58,0-7.13,0.03-10.68,0.11c-114.15,2.06-221.2,37.26-302.42,99.57c-27.22,20.91-50.51,44.04-69.55,68.88
				c-5.37,7-10.42,14.13-15.09,21.37C18.08,233.86,2.19,282.37,0.21,332.77C0.08,336.32,0,339.87,0,343.45
				c0,3.58,0.08,7.13,0.21,10.68c1.98,50.4,17.87,98.9,46.31,142.84c4.67,7.24,9.72,14.37,15.09,21.37
				c19.04,24.84,42.33,47.97,69.55,68.88c81.22,62.31,188.27,97.49,302.42,99.54c3.55,0.08,7.1,0.11,10.68,0.11
				c3.58,0,7.13-0.03,10.68-0.11c114.15-2.06,221.2-37.23,302.4-99.54c27.22-20.91,50.48-44.04,69.55-68.88
				c5.37-7,10.39-14.13,15.09-21.37c28.45-43.94,44.34-92.44,46.31-142.84c0.13-3.55,0.21-7.1,0.21-10.68
				C888.52,339.87,888.44,336.32,888.31,332.77z M815.93,496.97c-5.21,7.29-10.79,14.42-16.72,21.37
				c-55.55,65.17-141.18,114.18-241.82,135.44c-24.44,5.21-49.73,8.73-75.72,10.47c-8.81,0.59-17.73,0.99-26.71,1.15
				c-3.55,0.08-7.1,0.11-10.68,0.11c-3.58,0-7.13-0.03-10.68-0.11c-9-0.16-17.92-0.56-26.74-1.15
				c-25.99-1.74-51.31-5.29-75.75-10.47c-100.61-21.29-186.27-70.27-241.8-135.44c-5.93-6.94-11.51-14.08-16.72-21.37
				c-30.55-42.71-48.77-91.26-50.99-142.84c-0.16-3.55-0.24-7.1-0.24-10.68c0-3.58,0.08-7.13,0.24-10.68
				c2.22-51.58,20.43-100.13,50.99-142.84c5.21-7.29,10.79-14.42,16.69-21.37c55.58-65.2,141.26-114.21,241.96-135.49l0.03-0.03
				c24.41-5.15,49.71-8.68,75.67-10.42c8.79-0.59,17.68-0.99,26.66-1.15c3.55-0.08,7.1-0.11,10.68-0.11c3.58,0,7.13,0.03,10.68,0.11
				c8.95,0.16,17.84,0.56,26.66,1.15c25.93,1.74,51.23,5.26,75.61,10.42c0.03,0,0.03,0,0.05,0.03
				c100.69,21.26,186.37,70.27,241.96,135.49c5.9,6.94,11.48,14.08,16.69,21.37c30.55,42.71,48.77,91.26,50.99,142.84
				c0.16,3.55,0.24,7.1,0.24,10.68c0,3.58-0.08,7.13-0.24,10.68C864.7,405.71,846.48,454.27,815.93,496.97z"/>
			<g>
				<path class="st1" d="M842,189.93H46.53c4.67-7.24,9.72-14.37,15.09-21.37h765.29C832.28,175.56,837.3,182.69,842,189.93z"/>
				<path class="st1" d="M246.47,332.77v21.37H0.21C0.08,350.58,0,347.03,0,343.45c0-3.58,0.08-7.13,0.21-10.68H246.47z"/>
				<path class="st1" d="M888.52,343.45c0,3.58-0.08,7.13-0.21,10.68h-361v-21.37h361C888.44,336.32,888.52,339.87,888.52,343.45z"
					/>
				<path class="st1" d="M842,496.97c-4.7,7.24-9.72,14.37-15.09,21.37H61.62c-5.37-7-10.42-14.13-15.09-21.37H842z"/>
			</g>
		</g>
		<path class="st1" d="M454.96,496.97v189.79c-3.55,0.08-7.1,0.11-10.68,0.11c-3.58,0-7.13-0.03-10.68-0.11V496.97H454.96z"/>
		<path class="st1" d="M454.96,0.11v208.54h-21.37V0.11C437.14,0.03,440.7,0,444.28,0C447.85,0,451.41,0.03,454.96,0.11z"/>
	</g>
	<g>
		<polygon class="st1" points="259.84,464.87 430.51,464.87 430.51,405.58 319.12,405.58 319.12,373.16 394.5,373.16 394.5,313.88 
			319.12,313.88 319.12,281.3 430.51,281.3 430.51,222.02 259.84,222.02 		"/>
		<polygon class="st1" points="513.95,405.58 513.95,222.02 454.66,222.02 454.66,464.87 628.7,464.87 628.7,405.58 		"/>
	</g>
</g>
</svg>
