<?xml version="1.0" encoding="UTF-8"?>
<svg id="Layer_2" data-name="Layer 2" xmlns="http://www.w3.org/2000/svg" viewBox="0 0 599.58 463.51">
  <defs>
    <style>
      .cls-1 {
        fill: #523f38;
      }
    </style>
  </defs>
  <g id="Layer_1-2" data-name="Layer 1">
    <g>
      <g>
        <g>
          <path class="cls-1" d="M521.7,224.55c-1.1-34.7-10.13-67.41-25.32-96.39-2.58-4.92-5.33-9.73-8.25-14.42-26.03-41.74-65.41-74.24-112.07-91.43t-.04-.02c-21.63-7.97-44.84-12.63-69.01-13.41-1.86-.05-3.71-.09-5.57-.11-.56-.02-1.1-.02-1.64-.02s-1.08,0-1.64.02c-1.86.02-3.71.05-5.57.13-24.19.76-47.4,5.44-69.05,13.39l-.02.02c-46.66,17.19-86.03,49.69-112.05,91.43-2.92,4.69-5.68,9.5-8.25,14.42-15.19,28.98-24.22,61.69-25.32,96.39-.09,2.4-.13,4.79-.13,7.21s.04,4.81.13,7.21c1.1,34.7,10.13,67.41,25.32,96.39,2.58,4.92,5.33,9.71,8.25,14.42,26.01,41.71,65.33,74.18,111.96,91.4,21.68,8,44.93,12.69,69.16,13.45,1.84.07,3.71.11,5.57.13.54.02,1.1.02,1.64.02s1.1,0,1.64-.02c1.86-.02,3.71-.05,5.57-.13,24.21-.76,47.46-5.44,69.12-13.45,46.64-17.19,85.99-49.69,112-91.4,2.92-4.7,5.68-9.5,8.25-14.42,15.19-28.98,24.22-61.69,25.32-96.39.09-2.4.13-4.79.13-7.21s-.04-4.81-.13-7.21ZM479.93,335.36c-2.81,4.94-5.82,9.75-9.05,14.42-29.88,43.62-75.84,75.28-129.21,86.3-11.25,2.34-22.82,3.75-34.66,4.15-1.93.05-3.86.09-5.8.11-.47,0-.94.02-1.41.02s-.94-.02-1.41-.02c-1.95-.02-3.87-.05-5.8-.11-11.82-.4-23.41-1.8-34.66-4.15-53.37-11.01-99.34-42.68-129.21-86.3-3.23-4.67-6.24-9.48-9.05-14.42-16.37-28.59-26.17-61.41-27.34-96.39-.11-2.4-.14-4.79-.14-7.21s.04-4.81.14-7.21c1.17-34.98,10.98-67.8,27.34-96.39,2.81-4.94,5.82-9.75,9.05-14.42,29.86-43.62,75.82-75.28,129.21-86.3,11.25-2.34,22.84-3.75,34.66-4.15,1.93-.05,3.86-.09,5.8-.11.47,0,.94-.02,1.41-.02s.94.02,1.41.02c1.95.02,3.88.05,5.8.11,11.84.4,23.41,1.8,34.66,4.15,53.39,11.01,99.34,42.68,129.21,86.3,3.23,4.67,6.24,9.48,9.05,14.42,16.37,28.59,26.17,61.41,27.34,96.39.11,2.4.14,4.79.14,7.21s-.04,4.81-.14,7.21c-1.17,34.98-10.98,67.8-27.34,96.39Z"/>
          <path class="cls-1" d="M378.92,322.71c-.9,4.31-1.87,8.53-2.9,12.65-1.23,4.94-2.54,9.75-3.93,14.42-14.82,49.83-38.5,84.49-65.08,89.85-1.91.4-3.86.63-5.8.7-.47,0-.94.02-1.41.02s-.94-.02-1.41-.02c-1.95-.07-3.89-.31-5.8-.7-26.6-5.35-50.27-40.01-65.08-89.85-1.39-4.67-2.7-9.48-3.93-14.42-1.03-4.13-2-8.34-2.9-12.65h-14.98c.87,4.31,1.78,8.51,2.76,12.65,1.15,4.92,2.4,9.73,3.73,14.42,10.74,38.08,26.64,68.27,45.74,86.3,5.3,5.05,10.85,9.12,16.62,12.17,5.82,3.08,11.84,5.12,18.04,6.02,1.84.27,3.69.43,5.57.49.54.02,1.1.02,1.64.02s1.1,0,1.64-.02c1.87-.05,3.73-.22,5.57-.49,6.18-.9,12.2-2.94,18.02-6.02,5.77-3.05,11.32-7.14,16.64-12.17,19.1-18.02,35-48.21,45.74-86.3,1.33-4.69,2.58-9.5,3.73-14.42.97-4.15,1.89-8.34,2.76-12.65h-14.98ZM402.46,224.55c-.49-34.91-4.51-67.57-11.32-96.39-1.15-4.92-2.4-9.73-3.73-14.42-10.74-38.08-26.64-68.27-45.74-86.3-5.32-5.05-10.9-9.14-16.67-12.18-5.8-3.06-11.82-5.1-17.99-6-1.84-.27-3.69-.43-5.57-.49-.56-.02-1.1-.02-1.64-.02s-1.08,0-1.64.02c-1.87.05-3.73.22-5.57.49-6.16.9-12.18,2.94-17.99,6-5.79,3.05-11.35,7.14-16.67,12.18-19.1,18.02-35,48.21-45.74,86.3-1.33,4.69-2.58,9.5-3.73,14.42-.97,4.13-1.89,8.34-2.76,12.63h14.98c.9-4.29,1.87-8.51,2.9-12.63,1.23-4.94,2.54-9.75,3.93-14.42,14.82-49.83,38.48-84.49,65.08-89.85,1.91-.4,3.86-.63,5.8-.7.47,0,.94-.02,1.41-.02s.94.02,1.41.02c1.95.07,3.89.31,5.8.7,26.58,5.35,50.27,40.01,65.08,89.85,1.39,4.67,2.7,9.48,3.93,14.42,7.16,28.75,11.5,61.64,12,96.39.05,2.4.07,4.79.07,7.21s-.02,4.81-.07,7.21c-.13,8.69-.49,17.28-1.08,25.7h14.49c.56-8.42.9-16.98,1.03-25.7.04-2.4.05-4.79.05-7.21s-.02-4.81-.05-7.21Z"/>
          <path class="cls-1" d="M599.44,224.55c-1.33-34.01-12.06-66.74-31.25-96.39-3.17-4.88-6.56-9.7-10.18-14.42-12.87-16.76-28.57-32.37-46.93-46.48C456.28,25.21,384.04,1.46,307.01.07c-2.4-.05-4.79-.07-7.21-.07s-4.81.02-7.21.07c-77.03,1.39-149.27,25.14-204.08,67.19-18.37,14.11-34.08,29.72-46.93,46.48-3.62,4.72-7.03,9.53-10.18,14.42C12.2,157.81,1.48,190.54.14,224.55c-.09,2.4-.14,4.79-.14,7.21s.05,4.81.14,7.21c1.33,34.01,12.06,66.74,31.25,96.39,3.15,4.88,6.56,9.7,10.18,14.42,12.85,16.76,28.57,32.37,46.93,46.48,54.81,42.05,127.05,65.79,204.08,67.17,2.4.05,4.79.07,7.21.07s4.81-.02,7.21-.07c77.03-1.39,149.27-25.12,204.06-67.17,18.37-14.11,34.06-29.72,46.93-46.48,3.62-4.72,7.01-9.53,10.18-14.42,19.19-29.65,29.92-62.38,31.25-96.39.09-2.4.14-4.79.14-7.21s-.05-4.81-.14-7.21ZM550.6,335.36c-3.51,4.92-7.28,9.73-11.28,14.42-37.49,43.98-95.27,77.05-163.18,91.4-16.49,3.51-33.56,5.89-51.1,7.07-5.95.4-11.97.67-18.02.78-2.4.05-4.79.07-7.21.07s-4.81-.02-7.21-.07c-6.07-.11-12.09-.38-18.04-.78-17.54-1.17-34.62-3.57-51.11-7.07-67.89-14.36-125.7-47.42-163.17-91.4-4-4.69-7.77-9.5-11.28-14.42-20.62-28.82-32.91-61.59-34.41-96.39-.11-2.4-.16-4.79-.16-7.21s.05-4.81.16-7.21c1.5-34.8,13.79-67.57,34.41-96.39,3.51-4.92,7.28-9.73,11.26-14.42,37.51-44,95.33-77.07,163.27-91.43l.02-.02c16.47-3.48,33.54-5.86,51.06-7.03,5.93-.4,11.93-.67,17.99-.78,2.4-.05,4.79-.07,7.21-.07s4.81.02,7.21.07c6.04.11,12.04.38,17.99.78,17.5,1.17,34.57,3.55,51.02,7.03t.04.02c67.95,14.35,125.77,47.42,163.27,91.43,3.98,4.69,7.75,9.5,11.26,14.42,20.62,28.82,32.91,61.59,34.41,96.39.11,2.4.16,4.79.16,7.21s-.05,4.81-.16,7.21c-1.5,34.8-13.79,67.57-34.41,96.39Z"/>
          <g>
            <path class="cls-1" d="M568.19,128.16H31.4c3.15-4.88,6.56-9.7,10.18-14.42h516.42c3.62,4.72,7.01,9.53,10.18,14.42Z"/>
            <path class="cls-1" d="M166.32,224.55v14.42H.14c-.09-2.4-.14-4.79-.14-7.21s.05-4.81.14-7.21h166.18Z"/>
            <path class="cls-1" d="M599.58,231.76c0,2.42-.05,4.81-.14,7.21h-243.6v-14.42h243.6c.09,2.4.14,4.79.14,7.21Z"/>
            <path class="cls-1" d="M568.19,335.36c-3.17,4.88-6.56,9.7-10.18,14.42H41.58c-3.62-4.72-7.03-9.53-10.18-14.42h536.79Z"/>
          </g>
        </g>
        <path class="cls-1" d="M307.01,335.36v128.07c-2.4.05-4.79.07-7.21.07s-4.81-.02-7.21-.07v-128.07h14.42Z"/>
        <path class="cls-1" d="M307.01.07v140.73h-14.42V.07c2.4-.05,4.79-.07,7.21-.07s4.81.02,7.21.07Z"/>
      </g>
      <g>
        <polygon class="cls-1" points="175.34 313.69 290.51 313.69 290.51 273.69 215.35 273.69 215.35 251.81 266.21 251.81 266.21 211.81 215.35 211.81 215.35 189.82 290.51 189.82 290.51 149.82 175.34 149.82 175.34 313.69"/>
        <polygon class="cls-1" points="346.82 273.69 346.82 149.82 306.81 149.82 306.81 313.69 424.25 313.69 424.25 273.69 346.82 273.69"/>
      </g>
    </g>
  </g>
</svg>