<svg xmlns="http://www.w3.org/2000/svg" height="24px" width="24px" viewBox="0 0 24 24" fill="none">
  <path
    d="M12 2C6.477 2 2 6.589 2 12.25c0 4.529 2.865 8.372 6.839 9.728.5.096.682-.223.682-.495 0-.244-.009-.891-.014-1.748-2.782.619-3.369-1.389-3.369-1.389-.455-1.183-1.11-1.498-1.11-1.498-.908-.637.069-.624.069-.624 1.004.073 1.532 1.055 1.532 1.055.892 1.565 2.341 1.113 2.91.851.091-.663.349-1.113.635-1.369-2.221-.261-4.555-1.141-4.555-5.08 0-1.123.391-2.042 1.031-2.761-.103-.263-.447-1.321.098-2.754 0 0 .84-.276 2.75 1.054A9.35 9.35 0 0 1 12 6.836c.85.004 1.706.118 2.505.347 1.909-1.33 2.748-1.054 2.748-1.054.546 1.433.202 2.491.1 2.754.642.719 1.03 1.638 1.03 2.761 0 3.949-2.337 4.816-4.565 5.072.359.319.679.948.679 1.91 0 1.379-.013 2.491-.013 2.83 0 .274.18.595.688.494C19.138 20.619 22 16.777 22 12.25 22 6.589 17.523 2 12 2Z"
    fill="#FFFFFF"
  />
</svg>
